<?xml version="1.0" encoding="utf-8"?>
<!-- Generator: Adobe Illustrator 19.0.0, SVG Export Plug-In . SVG Version: 6.00 Build 0)  -->
<svg version="1.1" id="图层_1" xmlns="http://www.w3.org/2000/svg" xmlns:xlink="http://www.w3.org/1999/xlink" x="0px" y="0px"
	 viewBox="0 0 218 218" style="enable-background:new 0 0 218 218;" xml:space="preserve">
<style type="text/css">
	.st0{fill:none;}
	.st1{fill:url(#SVGID_1_);}
	.st2{enable-background:new    ;}
	.st3{fill:#0085F6;}
</style>
<rect class="st0" width="218" height="36.5"/>
<g>
	<g>
		
			<linearGradient id="SVGID_1_" gradientUnits="userSpaceOnUse" x1="142.7381" y1="184.8507" x2="63.2473" y2="47.1687" gradientTransform="matrix(1 0 0 1 3.5001 -5)">
			<stop  offset="0" style="stop-color:#0063FF"/>
			<stop  offset="1" style="stop-color:#00C8DE"/>
		</linearGradient>
		<path class="st1" d="M102,163c-29.2,0-54-9.5-54-21v-19c8,9,28.9,16.6,52.3,17c0.1-1.1,0.2-2.1,0.4-3C72.1,136.7,48,126.3,48,115
			V97c7,7.9,24,14,43.9,15.6c-0.3-1.1-0.6-2.1-0.8-3C66.9,107.5,48,99,48,89V71c8.2,9.2,29.9,16,54,16c24.1,0,44.8-6.8,53-16v18
			c0,5.1-4.8,9.9-12.6,13.5c0.9,0.6,1.7,1.2,2.5,1.8c4.3-2.2,7.8-4.7,10.2-7.4v18.3c1.3,1.9,2.3,3.8,3,5.3V63c0-13.6-24.8-25-56-25
			c-31.2,0-57,11.4-57,25l0,26v0v26.4l0-0.4v26.9c0,13.6,25.8,24.1,57,24.1c3.5,0,6.9-0.1,10.2-0.4c-1.1-0.9-2.1-1.9-3-2.8
			C106.8,162.9,104.4,163,102,163z M102,41c29.2,0,53,10.5,53,22c0,11.5-23.8,21-53,21c-29.2,0-54-9.5-54-21S72.8,41,102,41z
			 M45,142v-0.1c0,0,0,0,0,0L45,142z M171.9,138.8c-6.9-5.3-14.4-7.2-18.5-8.2c-0.6-0.1-1.1-0.3-1.5-0.4c-0.7-0.2-1.3-0.7-1.6-1.3
			c-1.9-4-3.5-6.2-11.1-15.5c-7-8.5-21.2-12.2-23.6-12.8c-1.8-1.5-10-7.5-14.2-3.8c-4.5,4,0.6,10,3.1,12.8l0.4,0.5
			c1.3,1.6,2.1,4.6,2.7,7.2c0.2,1,0.5,1.9,0.7,2.7c0.7,2.6,2.8,5.6,4,7.2c0.1,0.1,0.1,0.2,0.1,0.4c-0.8,3.3-3.2,14.6,0.4,21.8
			c1.5,2.9,3.4,6.2,5.9,5.6c1.9-0.4,2.8-2.8,2.8-7c0-1.9,0.1-3.1,0.2-3.8c0.5,0.8,1.3,2.1,1.9,3.3c3.4,5.9,9,15.8,16.9,19.5l1.3-2.7
			c-7-3.3-12.4-12.7-15.5-18.3c-2.2-3.9-3.1-5.4-4.5-5.5c-0.8-0.1-1.4,0.1-1.9,0.6c-0.9,0.8-1.3,2.2-1.3,6.9c0,2.2-0.3,3.4-0.5,3.9
			c-0.4-0.3-1.2-1.3-2.5-3.8c-3.1-6.3-0.9-16.7-0.2-19.7c0.2-1,0-2.1-0.6-2.9c-0.8-1.1-2.9-4-3.5-6.2c-0.2-0.8-0.4-1.6-0.7-2.6
			c-0.7-3-1.5-6.3-3.3-8.4l-0.5-0.5c-2.9-3.4-5.4-6.9-3.4-8.7c1.8-1.6,7.4,1.5,10.5,4.1l0.3,0.2l0.4,0.1c0.2,0,15.4,3.5,22.3,11.9
			c7.5,9.2,8.9,11.1,10.7,14.9c0.7,1.4,2,2.5,3.5,2.9c0.5,0.1,1,0.3,1.6,0.4c4.1,1,11,2.7,17.4,7.7c2.5,1.9,2.9,2.9,3,3.1
			c-1.1,1-9.3,0.9-15.2-0.6c-0.8-0.2-1.7,0.2-2.1,0.9c-0.4,0.7-0.3,1.7,0.3,2.3c3,3,10.4,10.8,14.4,18.8l2.7-1.3
			c-3.3-6.7-8.8-13.2-12.5-17.1c4.9,0.8,13.5,1.7,15.1-1.7C177,143.1,174.2,140.5,171.9,138.8z M115,111.5c0,0,2.1,1.3,3.3,4.3
			l2.8-1.1c-1.5-4.1-4.5-5.8-4.6-5.9L115,111.5z"/>
	</g>
</g>
<g>
	<path class="st0" d="M-645.5-186c-29.2,0-54-9.5-54-21v-19c8,9,28.9,16.6,52.3,17c0.1-1.1,0.2-2.1,0.4-3
		c-28.6-0.3-52.7-10.7-52.7-22v-18c7,7.9,24,14,43.9,15.6c-0.3-1.1-0.6-2.1-0.8-3c-24.2-2-43-10.5-43-20.5v-18
		c8.2,9.2,29.9,16,54,16c24.1,0,44.8-6.8,53-16v18c0,5.1-4.8,9.9-12.6,13.5c0.9,0.6,1.7,1.2,2.5,1.8c4.3-2.2,7.8-4.7,10.2-7.4v18.3
		c1.3,1.9,2.3,3.8,3,5.3V-286c0-13.6-24.8-25-56-25c-31.2,0-57,11.4-57,25l0,26v0v26.4l0-0.4v26.9c0,13.6,25.8,24.1,57,24.1
		c3.5,0,6.9-0.1,10.2-0.4c-1.1-0.9-2.1-1.9-3-2.8C-640.7-186.1-643.1-186-645.5-186z M-645.5-308c29.2,0,53,10.5,53,22
		c0,11.5-23.8,21-53,21c-29.2,0-54-9.5-54-21S-674.7-308-645.5-308z M-702.5-207v-0.1c0,0,0,0,0,0L-702.5-207z M-575.6-210.2
		c-6.9-5.3-14.4-7.2-18.5-8.2c-0.6-0.1-1.1-0.3-1.5-0.4c-0.7-0.2-1.3-0.7-1.6-1.3c-1.9-4-3.5-6.2-11.1-15.5
		c-7-8.5-21.2-12.2-23.6-12.8c-1.8-1.5-10-7.5-14.2-3.8c-4.5,4,0.6,10,3.1,12.8l0.4,0.5c1.3,1.6,2.1,4.6,2.7,7.2
		c0.2,1,0.5,1.9,0.7,2.7c0.7,2.6,2.8,5.6,4,7.2c0.1,0.1,0.1,0.2,0.1,0.4c-0.8,3.3-3.2,14.6,0.4,21.8c1.5,2.9,3.4,6.2,5.9,5.6
		c1.9-0.4,2.8-2.8,2.8-7c0-1.9,0.1-3.1,0.2-3.8c0.5,0.8,1.3,2.1,1.9,3.3c3.4,5.9,9,15.8,16.9,19.5l1.3-2.7
		c-7-3.3-12.4-12.7-15.5-18.3c-2.2-3.9-3.1-5.4-4.5-5.5c-0.8-0.1-1.4,0.1-1.9,0.6c-0.9,0.8-1.3,2.2-1.3,6.9c0,2.2-0.3,3.4-0.5,3.9
		c-0.4-0.3-1.2-1.3-2.5-3.8c-3.1-6.3-0.9-16.7-0.2-19.7c0.2-1,0-2.1-0.6-2.9c-0.8-1.1-2.9-4-3.5-6.2c-0.2-0.8-0.4-1.6-0.7-2.6
		c-0.7-3-1.5-6.3-3.3-8.4l-0.5-0.5c-2.9-3.4-5.4-6.9-3.4-8.7c1.8-1.6,7.4,1.5,10.5,4.1l0.3,0.2l0.4,0.1c0.2,0,15.4,3.5,22.3,11.9
		c7.5,9.2,8.9,11.1,10.7,14.9c0.7,1.4,2,2.5,3.5,2.9c0.5,0.1,1,0.3,1.6,0.4c4.1,1,11,2.7,17.4,7.7c2.5,1.9,2.9,2.9,3,3.1
		c-1.1,1-9.3,0.9-15.2-0.6c-0.8-0.2-1.7,0.2-2.1,0.9c-0.4,0.7-0.3,1.7,0.3,2.3c3,3,10.4,10.8,14.4,18.8l2.7-1.3
		c-3.3-6.7-8.8-13.2-12.5-17.1c4.9,0.8,13.5,1.7,15.1-1.7C-570.5-205.9-573.3-208.5-575.6-210.2z M-632.5-237.5c0,0,2.1,1.3,3.3,4.3
		l2.8-1.1c-1.5-4.1-4.5-5.8-4.6-5.9L-632.5-237.5z"/>
</g>
<g class="st2">
	<path class="st3" d="M86.5,184h1.4l3.7,8.5h0l3.7-8.5h1.4v10h-1.1v-8h0l-3.5,8h-1l-3.5-8h0v8h-1.1V184z"/>
	<path class="st3" d="M97.9,186.8h1.2l2.2,5.7l2.1-5.7h1.2l-4,10h-1.2l1.2-2.9L97.9,186.8z"/>
	<path class="st3" d="M111.8,184.6c0.7,0.5,1,1.3,1.1,2.4h-1.1c-0.1-0.7-0.4-1.3-0.8-1.6c-0.4-0.4-1.1-0.5-1.9-0.5
		c-0.8,0-1.3,0.1-1.7,0.4c-0.5,0.3-0.7,0.7-0.7,1.3c0,0.5,0.3,0.9,0.9,1.2c0.2,0.1,0.9,0.4,1.8,0.6c1.3,0.4,2.2,0.7,2.6,1
		c0.8,0.5,1.2,1.2,1.2,2.1c0,0.9-0.4,1.6-1,2.1c-0.7,0.5-1.7,0.7-2.8,0.7s-2.1-0.3-2.8-0.8c-0.8-0.6-1.2-1.5-1.3-2.7h1.1
		c0.1,0.9,0.4,1.5,0.9,1.9c0.5,0.4,1.2,0.6,2,0.6c0.8,0,1.5-0.2,2-0.5c0.5-0.3,0.8-0.7,0.8-1.3c0-0.6-0.3-1.1-1-1.5
		c-0.3-0.1-1-0.4-2.1-0.7c-1.2-0.4-1.9-0.6-2.3-0.8c-0.8-0.4-1.1-1.1-1.1-1.9c0-0.9,0.4-1.6,1.1-2c0.7-0.4,1.5-0.7,2.5-0.7
		C110.2,183.8,111.1,184.1,111.8,184.6z"/>
	<path class="st3" d="M122.5,185.3c0.8,1,1.2,2.2,1.2,3.7c0,1.5-0.4,2.7-1.2,3.7c0,0-0.1,0.1-0.1,0.1c0.3,0.4,0.7,0.9,1.1,1.6
		l-0.8,0.7c-0.5-0.7-0.8-1.2-1.1-1.6c-0.8,0.5-1.7,0.8-2.7,0.8c-1.5,0-2.7-0.5-3.5-1.5c-0.8-0.9-1.2-2.2-1.2-3.7
		c0-1.5,0.4-2.8,1.2-3.7c0.9-1,2.1-1.5,3.6-1.5C120.5,183.8,121.6,184.3,122.5,185.3z M116.2,186c-0.6,0.8-0.9,1.8-0.9,3
		c0,1.2,0.3,2.2,0.9,3c0.6,0.8,1.5,1.2,2.7,1.2c0.8,0,1.5-0.2,2.1-0.6c-0.6-0.7-1.1-1.4-1.7-2l0.7-0.7c0.6,0.7,1.2,1.3,1.7,1.9
		c0.6-0.7,0.8-1.7,0.8-2.9c0-1.3-0.3-2.3-0.9-3c-0.6-0.8-1.5-1.1-2.7-1.1C117.8,184.8,116.9,185.2,116.2,186z"/>
	<path class="st3" d="M125.3,184h1.1v9h5.8v1h-6.9V184z"/>
</g>
</svg>
